<svg width="365" height="77" viewBox="0 0 365 77" fill="none" xmlns="http://www.w3.org/2000/svg">
<path fill-rule="evenodd" clip-rule="evenodd" d="M43 28C43 32.4183 39.4183 36 35 36C30.5817 36 27 32.4183 27 28C27 23.5817 30.5817 20 35 20C39.4183 20 43 23.5817 43 28ZM40 28C40 30.7614 37.7614 33 35 33C32.2386 33 30 30.7614 30 28C30 25.2386 32.2386 23 35 23C37.7614 23 40 25.2386 40 28Z" fill="#66134D"/>
<path fill-rule="evenodd" clip-rule="evenodd" d="M21 7C21 3.13401 24.134 0 28 0H41C44.866 0 48 3.13401 48 7V12.2592C55.5933 15.0967 61 22.4169 61 31V41.0494C61.3386 41.083 61.6722 41.1335 62 41.2C66.5645 42.1266 70 46.1621 70 51V67C70 69.2091 68.2091 71 66 71H61C61 74.3137 58.3137 77 55 77H15C11.6863 77 9 74.3137 9 71H4C1.79086 71 0 69.2091 0 67V51C0 46.1621 3.43552 42.1266 8 41.2C8.3278 41.1335 8.66141 41.083 9 41.0494V31C9 22.7987 13.9364 15.7504 21 12.6642V7ZM28 4H41C42.6569 4 44 5.34315 44 7V10H25V7C25 5.34315 26.3431 4 28 4ZM29 14C19.6112 14 12 21.6112 12 31V52.7466C20.4639 49.9098 27.3445 48.4676 34.3874 48.4732C41.5754 48.479 48.829 49.9929 58 52.9246V31C58 21.6112 50.3888 14 41 14H29ZM58 71C58 72.6569 56.6569 74 55 74H15C13.3431 74 12 72.6569 12 71V55.9143C20.7458 52.917 27.5316 51.4678 34.385 51.4732C41.2484 51.4787 48.2867 52.9431 57.5395 55.9276C57.6925 55.9769 57.8475 56.0004 58 56.0004V71ZM4 67H8V45.3414C5.66962 46.1651 4 48.3876 4 51L4 67ZM62 67H66V51C66 48.3876 64.3304 46.1651 62 45.3414V67Z" fill="#66134D"/>
<path d="M98.2846 51.1C98.5846 46.5 98.7346 41.65 98.7346 36.55C98.7346 31.45 98.5846 27.5333 98.2846 24.8L96.5846 24.65C96.5179 24.1167 96.4846 23.6667 96.4846 23.3C96.4846 22.9 96.5346 22.4167 96.6346 21.85C97.8012 21.8833 99.1512 21.9 100.685 21.9C102.218 21.9 103.551 21.8833 104.685 21.85C104.785 22.35 104.835 22.8 104.835 23.2C104.835 23.5667 104.801 24.05 104.735 24.65L102.835 24.8C102.601 27.9333 102.485 32.25 102.485 37.75C102.485 43.2167 102.601 47.3667 102.835 50.2C103.868 50.3 105.368 50.35 107.335 50.35C109.335 50.35 110.851 50.2667 111.885 50.1L112.035 46.7C112.601 46.6 113.101 46.55 113.535 46.55C114.001 46.55 114.435 46.5667 114.835 46.6C114.935 49.1333 115.085 51.6 115.285 54L115.035 54.25C113.468 54.0833 110.285 54 105.485 54C100.685 54 97.7179 54.0167 96.5846 54.05C96.4846 53.55 96.4346 53.1167 96.4346 52.75C96.4346 52.35 96.4679 51.85 96.5346 51.25L98.2846 51.1ZM126.253 42.9C124.619 42.9 123.103 42.8167 121.703 42.65C121.769 48.3167 123.653 51.15 127.353 51.15C129.219 51.15 131.286 50.1167 133.553 48.05C134.519 49.05 135.136 50.3667 135.403 52C132.669 53.8333 129.769 54.75 126.703 54.75C123.636 54.75 121.353 53.7 119.853 51.6C118.353 49.4667 117.603 46.35 117.603 42.25C117.603 38.15 118.436 35.1 120.103 33.1C121.803 31.1 124.203 30.1 127.303 30.1C129.603 30.1 131.503 30.8 133.003 32.2C134.503 33.6 135.253 35.3167 135.253 37.35C135.286 39.3833 135.119 40.8333 134.753 41.7C132.253 42.5 129.419 42.9 126.253 42.9ZM126.953 32.9C123.853 32.9 122.119 35.1833 121.753 39.75C123.253 39.9167 124.903 40 126.703 40C128.503 40 129.903 39.8333 130.903 39.5C131.036 38.6667 131.103 38.05 131.103 37.65C131.103 36.1833 130.719 35.0333 129.953 34.2C129.219 33.3333 128.219 32.9 126.953 32.9ZM157.311 36.75L157.111 43.95C157.111 46.2167 157.244 48.4333 157.511 50.6L159.361 50.75C159.428 51.2833 159.461 51.7833 159.461 52.25C159.461 52.6833 159.411 53.15 159.311 53.65C158.344 53.6833 156.461 53.85 153.661 54.15C153.428 53.5167 153.244 52.7333 153.111 51.8C150.511 53.7667 148.261 54.75 146.361 54.75C144.494 54.75 143.028 54.15 141.961 52.95C140.928 51.7167 140.411 49.9833 140.411 47.75C140.411 45.4833 141.111 43.7 142.511 42.4C143.944 41.1 145.728 40.45 147.861 40.45C150.028 40.45 151.878 40.85 153.411 41.65C153.444 41.2833 153.461 40.6833 153.461 39.85C153.461 37.3833 153.111 35.6167 152.411 34.55C151.744 33.45 150.711 32.9 149.311 32.9C147.911 32.9 146.894 33.1667 146.261 33.7C146.528 34.2333 146.661 34.9 146.661 35.7C146.661 36.5 146.394 37.2 145.861 37.8C145.361 38.3667 144.644 38.65 143.711 38.65C142.144 38.65 141.361 37.7333 141.361 35.9C141.361 34.0333 142.061 32.6 143.461 31.6C144.861 30.6 146.828 30.1 149.361 30.1C151.894 30.1 153.844 30.7 155.211 31.9C156.611 33.0667 157.311 34.6833 157.311 36.75ZM153.211 44.8C151.844 43.6333 150.378 43.05 148.811 43.05C145.811 43.05 144.311 44.3833 144.311 47.05C144.311 49.7833 145.494 51.15 147.861 51.15C148.728 51.15 149.644 50.9333 150.611 50.5C151.611 50.0333 152.394 49.4667 152.961 48.8C153.128 46.8 153.211 45.4667 153.211 44.8ZM165.094 51.1C165.394 47.7667 165.544 44.7167 165.544 41.95C165.544 39.15 165.411 36.3833 165.144 33.65L163.294 33.5C163.194 32.9667 163.144 32.4167 163.144 31.85C163.144 31.2833 163.161 30.9 163.194 30.7C164.894 30.6667 166.961 30.5167 169.394 30.25L169.644 30.5C169.611 30.7 169.511 31.6833 169.344 33.45C170.111 32.4833 170.994 31.6833 171.994 31.05C173.027 30.4167 174.027 30.1 174.994 30.1C175.994 30.1 176.861 30.45 177.594 31.15C178.327 31.85 178.694 32.7667 178.694 33.9C178.694 35.7667 177.911 36.7 176.344 36.7C175.444 36.7 174.727 36.4167 174.194 35.85C173.661 35.25 173.394 34.4667 173.394 33.5C173.327 33.4667 173.211 33.45 173.044 33.45C171.811 33.45 170.544 34.3833 169.244 36.25C169.211 37.1833 169.194 39.2833 169.194 42.55C169.194 45.7833 169.344 48.6333 169.644 51.1L171.494 51.25C171.561 51.9833 171.594 52.5 171.594 52.8C171.594 53.0667 171.544 53.4833 171.444 54.05C170.511 54.0167 169.144 54 167.344 54C165.544 54 164.227 54.0167 163.394 54.05C163.294 53.55 163.244 53.0833 163.244 52.65C163.244 52.1833 163.277 51.7167 163.344 51.25L165.094 51.1ZM201.028 36.5L200.978 41.35C200.978 44.85 201.178 48.1 201.578 51.1L203.328 51.25C203.395 51.9833 203.428 52.5 203.428 52.8C203.428 53.0667 203.378 53.4833 203.278 54.05C202.345 54.0167 200.945 54 199.078 54C197.211 54 195.878 54.0167 195.078 54.05C194.978 53.55 194.928 53.0833 194.928 52.65C194.928 52.1833 194.961 51.7167 195.028 51.25L196.778 51.1C197.045 47.2 197.178 43.8667 197.178 41.1C197.178 38.3 196.895 36.3 196.328 35.1C195.795 33.9 194.861 33.3 193.528 33.3C191.728 33.3 189.745 34.3833 187.578 36.55C187.545 37.4167 187.528 39.45 187.528 42.65C187.528 45.8167 187.678 48.6333 187.978 51.1L189.828 51.25C189.895 51.9833 189.928 52.5 189.928 52.8C189.928 53.0667 189.878 53.4833 189.778 54.05C188.845 54.0167 187.478 54 185.678 54C183.878 54 182.561 54.0167 181.728 54.05C181.628 53.55 181.578 53.0833 181.578 52.65C181.578 52.1833 181.611 51.7167 181.678 51.25L183.428 51.1C183.728 47.7667 183.878 44.7167 183.878 41.95C183.878 39.15 183.745 36.3833 183.478 33.65L181.628 33.5C181.528 32.9333 181.478 32.3833 181.478 31.85C181.478 31.2833 181.495 30.9 181.528 30.7C183.228 30.6667 185.295 30.5167 187.728 30.25L187.978 30.5C187.911 30.9 187.811 31.9 187.678 33.5C188.711 32.4667 189.911 31.65 191.278 31.05C192.645 30.4167 193.928 30.1 195.128 30.1C199.061 30.1 201.028 32.2333 201.028 36.5ZM232.588 55.7C232.721 55.9667 232.788 56.5 232.788 57.3C232.788 58.1 232.655 58.8667 232.388 59.6C229.988 60.4333 227.021 60.85 223.488 60.85C218.555 60.85 214.821 59.55 212.288 56.95C209.788 54.3833 208.538 50.5667 208.538 45.5C208.538 38.0667 210.338 32.3333 213.938 28.3C217.571 24.2667 222.721 22.25 229.388 22.25C234.588 22.25 238.555 23.6 241.288 26.3C244.055 28.9667 245.438 32.8333 245.438 37.9C245.438 41.8333 244.271 45.25 241.938 48.15C239.605 51.05 236.838 52.5 233.638 52.5C232.138 52.5 231.155 51.3833 230.688 49.15C228.188 51.3833 225.771 52.5 223.438 52.5C221.705 52.5 220.371 51.8167 219.438 50.45C218.538 49.05 218.088 47.05 218.088 44.45C218.088 40.2167 218.971 36.8167 220.738 34.25C222.505 31.65 224.838 30.35 227.738 30.35C230.671 30.35 233.521 30.7333 236.288 31.5C234.855 37.5667 234.138 42.7 234.138 46.9C234.138 48.6 234.621 49.45 235.588 49.45C237.055 49.45 238.405 48.25 239.638 45.85C240.905 43.45 241.538 40.85 241.538 38.05C241.538 33.6833 240.521 30.4667 238.488 28.4C236.488 26.3 233.355 25.25 229.088 25.25C223.755 25.25 219.671 26.9833 216.838 30.45C214.038 33.8833 212.638 38.85 212.638 45.35C212.638 53.55 216.071 57.65 222.938 57.65C225.571 57.65 228.788 57 232.588 55.7ZM232.038 33.9C230.638 33.2 229.121 32.85 227.488 32.85C225.855 32.85 224.521 33.9 223.488 36C222.455 38.1 221.938 40.8 221.938 44.1C221.938 47.4 223.005 49.05 225.138 49.05C225.938 49.05 226.838 48.8 227.838 48.3C228.871 47.8 229.788 47.15 230.588 46.35C230.721 45.35 231.205 41.2 232.038 33.9ZM259.958 51.25C260.025 51.7833 260.058 52.25 260.058 52.65C260.058 53.0167 260.008 53.4833 259.908 54.05C258.741 54.0167 257.391 54 255.858 54C254.325 54 252.991 54.0167 251.858 54.05C251.758 53.55 251.708 53.1167 251.708 52.75C251.708 52.35 251.741 51.85 251.808 51.25L253.558 51.1C253.825 47.5 253.958 42.9167 253.958 37.35C253.958 31.75 253.808 27.5667 253.508 24.8L251.808 24.65C251.741 24.1167 251.708 23.6667 251.708 23.3C251.708 22.9 251.758 22.4167 251.858 21.85C253.025 21.8833 254.375 21.9 255.908 21.9C257.441 21.9 258.775 21.8833 259.908 21.85C260.008 22.35 260.058 22.8 260.058 23.2C260.058 23.5667 260.025 24.05 259.958 24.65L258.058 24.8C257.825 27.7333 257.708 31.4833 257.708 36.05C259.508 36.25 261.675 36.35 264.208 36.35C266.741 36.35 269.158 36.2167 271.458 35.95C271.391 30.65 271.241 26.9333 271.008 24.8L269.308 24.65C269.241 24.1167 269.208 23.6667 269.208 23.3C269.208 22.9 269.258 22.4167 269.358 21.85C270.525 21.8833 271.875 21.9 273.408 21.9C274.941 21.9 276.275 21.8833 277.408 21.85C277.508 22.35 277.558 22.8 277.558 23.2C277.558 23.5667 277.525 24.05 277.458 24.65L275.558 24.8C275.325 27.5 275.208 31.6833 275.208 37.35C275.208 43.0167 275.358 47.6 275.658 51.1L277.458 51.25C277.525 51.7833 277.558 52.25 277.558 52.65C277.558 53.0167 277.508 53.4833 277.408 54.05C276.241 54.0167 274.891 54 273.358 54C271.825 54 270.491 54.0167 269.358 54.05C269.258 53.55 269.208 53.1167 269.208 52.75C269.208 52.35 269.241 51.85 269.308 51.25L271.058 51.1C271.258 48.2 271.391 44.4833 271.458 39.95C269.325 39.7167 266.908 39.6 264.208 39.6C261.508 39.6 259.341 39.7167 257.708 39.95C257.775 44.6833 257.925 48.4 258.158 51.1L259.958 51.25ZM283.081 42.15C283.081 34.1167 286.214 30.1 292.481 30.1C298.748 30.1 301.881 34.1167 301.881 42.15C301.881 45.85 301.298 48.7833 300.131 50.95C298.798 53.4833 296.248 54.75 292.481 54.75C288.714 54.75 286.164 53.4833 284.831 50.95C283.664 48.7833 283.081 45.85 283.081 42.15ZM287.181 42.05C287.181 48.1167 288.948 51.15 292.481 51.15C296.014 51.15 297.781 48.1167 297.781 42.05C297.781 35.95 296.014 32.9 292.481 32.9C288.948 32.9 287.181 35.95 287.181 42.05ZM337.722 37.25L337.672 41.35C337.672 44.85 337.872 48.1 338.272 51.1L340.072 51.25C340.139 51.55 340.172 51.95 340.172 52.45C340.172 52.95 340.122 53.4833 340.022 54.05C339.089 54.0167 337.689 54 335.822 54C333.955 54 332.622 54.0167 331.822 54.05C331.722 53.55 331.672 53.0833 331.672 52.65C331.672 52.1833 331.705 51.7167 331.772 51.25L333.472 51.1C333.739 47.2 333.872 43.8667 333.872 41.1C333.872 38.3 333.622 36.3 333.122 35.1C332.622 33.9 331.789 33.3 330.622 33.3C328.955 33.3 327.172 34.4 325.272 36.6L325.222 41.35C325.222 44.85 325.422 48.1 325.822 51.1L327.572 51.25C327.639 51.7833 327.672 52.25 327.672 52.65C327.672 53.0167 327.622 53.4833 327.522 54.05C326.589 54.0167 325.189 54 323.322 54C321.455 54 320.122 54.0167 319.322 54.05C319.222 53.55 319.172 53.0833 319.172 52.65C319.172 52.1833 319.205 51.7167 319.272 51.25L321.022 51.1C321.289 47.2 321.422 43.8667 321.422 41.1C321.422 38.3 321.172 36.3 320.672 35.1C320.172 33.9 319.339 33.3 318.172 33.3C316.472 33.3 314.689 34.3833 312.822 36.55C312.789 37.4167 312.772 39.45 312.772 42.65C312.772 45.8167 312.922 48.6333 313.222 51.1L315.072 51.25C315.139 51.9833 315.172 52.5 315.172 52.8C315.172 53.0667 315.122 53.4833 315.022 54.05C314.089 54.0167 312.722 54 310.922 54C309.122 54 307.805 54.0167 306.972 54.05C306.872 53.55 306.822 53.0833 306.822 52.65C306.822 52.1833 306.855 51.7167 306.922 51.25L308.672 51.1C308.972 47.7667 309.122 44.7167 309.122 41.95C309.122 39.15 308.989 36.3833 308.722 33.65L306.872 33.5C306.772 32.9333 306.722 32.3833 306.722 31.85C306.722 31.2833 306.739 30.9 306.772 30.7C308.472 30.6667 310.539 30.5167 312.972 30.25L313.222 30.5C313.122 31.2 313.022 32.1833 312.922 33.45C313.889 32.45 315.005 31.65 316.272 31.05C317.539 30.4167 318.722 30.1 319.822 30.1C322.555 30.1 324.272 31.3833 324.972 33.95C325.939 32.8167 327.089 31.9 328.422 31.2C329.789 30.4667 331.072 30.1 332.272 30.1C334.139 30.1 335.505 30.6833 336.372 31.85C337.272 32.9833 337.722 34.7833 337.722 37.25ZM353.157 42.9C351.524 42.9 350.007 42.8167 348.607 42.65C348.674 48.3167 350.557 51.15 354.257 51.15C356.124 51.15 358.19 50.1167 360.457 48.05C361.424 49.05 362.04 50.3667 362.307 52C359.574 53.8333 356.674 54.75 353.607 54.75C350.54 54.75 348.257 53.7 346.757 51.6C345.257 49.4667 344.507 46.35 344.507 42.25C344.507 38.15 345.34 35.1 347.007 33.1C348.707 31.1 351.107 30.1 354.207 30.1C356.507 30.1 358.407 30.8 359.907 32.2C361.407 33.6 362.157 35.3167 362.157 37.35C362.19 39.3833 362.024 40.8333 361.657 41.7C359.157 42.5 356.324 42.9 353.157 42.9ZM353.857 32.9C350.757 32.9 349.024 35.1833 348.657 39.75C350.157 39.9167 351.807 40 353.607 40C355.407 40 356.807 39.8333 357.807 39.5C357.94 38.6667 358.007 38.05 358.007 37.65C358.007 36.1833 357.624 35.0333 356.857 34.2C356.124 33.3333 355.124 32.9 353.857 32.9Z" fill="black"/>
</svg>
