<svg width="70" height="77" viewBox="0 0 70 77" fill="none" xmlns="http://www.w3.org/2000/svg">
<path fill-rule="evenodd" clip-rule="evenodd" d="M43 28C43 32.4183 39.4183 36 35 36C30.5817 36 27 32.4183 27 28C27 23.5817 30.5817 20 35 20C39.4183 20 43 23.5817 43 28ZM40 28C40 30.7614 37.7614 33 35 33C32.2386 33 30 30.7614 30 28C30 25.2386 32.2386 23 35 23C37.7614 23 40 25.2386 40 28Z" fill="#66134D"/>
<path fill-rule="evenodd" clip-rule="evenodd" d="M21 7C21 3.13401 24.134 0 28 0H41C44.866 0 48 3.13401 48 7V12.2592C55.5933 15.0967 61 22.4169 61 31V41.0494C61.3386 41.083 61.6722 41.1335 62 41.2C66.5645 42.1266 70 46.1621 70 51V67C70 69.2091 68.2091 71 66 71H61C61 74.3137 58.3137 77 55 77H15C11.6863 77 9 74.3137 9 71H4C1.79086 71 0 69.2091 0 67V51C0 46.1621 3.43552 42.1266 8 41.2C8.3278 41.1335 8.66141 41.083 9 41.0494V31C9 22.7987 13.9364 15.7504 21 12.6642V7ZM28 4H41C42.6569 4 44 5.34315 44 7V10H25V7C25 5.34315 26.3431 4 28 4ZM29 14C19.6112 14 12 21.6112 12 31V52.7466C20.4639 49.9098 27.3445 48.4676 34.3874 48.4732C41.5754 48.479 48.829 49.9929 58 52.9246V31C58 21.6112 50.3888 14 41 14H29ZM58 71C58 72.6569 56.6569 74 55 74H15C13.3431 74 12 72.6569 12 71V55.9143C20.7458 52.917 27.5316 51.4678 34.385 51.4732C41.2484 51.4787 48.2867 52.9431 57.5395 55.9276C57.6925 55.9769 57.8475 56.0004 58 56.0004V71ZM4 67H8V45.3414C5.66962 46.1651 4 48.3876 4 51L4 67ZM62 67H66V51C66 48.3876 64.3304 46.1651 62 45.3414V67Z" fill="#66134D"/>
</svg>
